HIERARCHY
ROOT SimulationBone
{
	OFFSET 0.000000 0.000000 0.000000
	CHANNELS 6 Xposition Yposition Zposition Zrotation Yrotation Xrotation 
	JOINT Hips
	{
		OFFSET 0.000000 0.000000 0.000000
		CHANNELS 6 Xposition Yposition Zposition Zrotation Yrotation Xrotation 
		JOINT RightUpLeg
		{
			OFFSET 0.103457 1.857824 10.548504
			CHANNELS 3 Zrotation Yrotation Xrotation
			JOINT RightLeg
			{
				OFFSET 43.500000 -0.000038 -0.000017
				CHANNELS 3 Zrotation Yrotation Xrotation
				JOINT RightFoot
				{
					OFFSET 42.372200 0.000011 0.000019
					CHANNELS 3 Zrotation Yrotation Xrotation
					JOINT RightToe
					{
						OFFSET 17.300011 0.000002 -0.000008
						CHANNELS 3 Zrotation Yrotation Xrotation
						End Site
						{
							OFFSET 0.000000 0.000000 0.000000
						}
					}
				}
			}
		}
		JOINT LeftUpLeg
		{
			OFFSET 0.103457 1.857822 -10.548492
			CHANNELS 3 Zrotation Yrotation Xrotation
			JOINT LeftLeg
			{
				OFFSET 43.500038 -0.000027 0.000036
				CHANNELS 3 Zrotation Yrotation Xrotation
				JOINT LeftFoot
				{
					OFFSET 42.372261 0.000015 0.000010
					CHANNELS 3 Zrotation Yrotation Xrotation
					JOINT LeftToe
					{
						OFFSET 17.299988 -0.000006 0.000008
						CHANNELS 3 Zrotation Yrotation Xrotation
						End Site
						{
							OFFSET 0.000000 0.000000 0.000000
						}
					}
				}
			}
		}
		JOINT Spine
		{
			OFFSET 6.901965 -2.603737 0.000006
			CHANNELS 3 Zrotation Yrotation Xrotation
			JOINT Spine1
			{
				OFFSET 12.588104 -0.000005 0.000007
				CHANNELS 3 Zrotation Yrotation Xrotation
				JOINT Spine2
				{
					OFFSET 12.343202 0.000026 -0.000008
					CHANNELS 3 Zrotation Yrotation Xrotation
					JOINT Neck
					{
						OFFSET 25.832890 -0.000029 -0.000007
						CHANNELS 3 Zrotation Yrotation Xrotation
						JOINT Head
						{
							OFFSET 11.766619 0.000021 0.000012
							CHANNELS 3 Zrotation Yrotation Xrotation
							End Site
							{
								OFFSET 0.000000 0.000000 0.000000
							}
						}
					}
					JOINT RightShoulder
					{
						OFFSET 19.745909 -1.480377 6.000106
						CHANNELS 3 Zrotation Yrotation Xrotation
						JOINT RightArm
						{
							OFFSET 11.284110 -0.000009 -0.000020
							CHANNELS 3 Zrotation Yrotation Xrotation
							JOINT RightForeArm
							{
								OFFSET 33.000053 0.000014 0.000021
								CHANNELS 3 Zrotation Yrotation Xrotation
								JOINT RightHand
								{
									OFFSET 25.200008 0.000006 -0.000004
									CHANNELS 3 Zrotation Yrotation Xrotation
									End Site
									{
										OFFSET 0.000000 0.000000 0.000000
									}
								}
							}
						}
					}
					JOINT LeftShoulder
					{
						OFFSET 19.746101 -1.480381 -6.000081
						CHANNELS 3 Zrotation Yrotation Xrotation
						JOINT LeftArm
						{
							OFFSET 11.284131 -0.000022 0.000003
							CHANNELS 3 Zrotation Yrotation Xrotation
							JOINT LeftForeArm
							{
								OFFSET 33.000095 0.000014 0.000005
								CHANNELS 3 Zrotation Yrotation Xrotation
								JOINT LeftHand
								{
									OFFSET 25.199774 0.000153 0.000423
									CHANNELS 3 Zrotation Yrotation Xrotation
									End Site
									{
										OFFSET 0.000000 0.000000 0.000000
									}
								}
							}
						}
					}
				}
			}
		}
	}
}
MOTION
Frames: 10
Frame Time: 0.016667
-166.609918 0.000000 137.039775 0.000000 6.138625 0.000000 -5.672787 85.219610 0.619497 91.452371 1.951144 -178.570485 144.717477 -5.261624 167.101016 -35.386515 1.640363 -3.781866 79.290887 0.777186 -7.443820 21.454557 0.003109 0.000017 171.737387 3.415371 -167.813572 -44.858545 2.542477 -2.689333 101.832029 1.627640 -1.751516 21.454555 -0.003092 -0.000000 13.128280 0.768524 0.442437 16.251421 1.467198 0.988609 15.933254 1.473007 0.979718 7.492915 -4.288608 -2.683415 -26.031992 5.667645 -5.841740 162.855868 -72.016616 16.248164 -5.898453 57.541809 29.105518 -45.267737 -20.873292 2.021037 4.167555 -3.410440 -40.466497 -169.829828 78.509508 11.861003 -30.500973 -53.059160 -29.772749 -39.006048 18.245222 -1.643164 12.973542 -11.524529 7.454149 
-167.880932 0.000000 137.119259 0.000000 6.422238 0.000000 -5.489907 85.570824 0.620355 91.576281 1.968427 -178.209898 145.345263 -5.466505 167.046947 -39.658932 2.272660 -3.186385 80.054174 0.484840 -7.060901 21.454555 0.003109 0.000018 171.545911 3.268297 -168.233146 -43.975933 2.910289 -2.137989 100.976095 1.249320 -1.671849 21.454557 -0.003092 0.000000 13.019667 0.810002 0.403410 16.034243 1.556201 0.915371 15.716052 1.561566 0.905942 7.627236 -4.375689 -2.824579 -25.655719 6.094369 -6.162787 162.342053 -72.126117 16.769993 -6.327463 57.061417 29.782496 -46.051552 -20.716109 2.034904 2.853130 -1.455081 -36.767819 -169.842051 78.555174 11.849123 -29.907929 -53.423764 -30.189100 -38.364594 17.954180 -1.607882 12.156842 -11.883465 9.292470 
-169.120399 0.000000 137.171121 0.000000 6.696741 0.000000 -5.341078 85.971020 0.624105 91.615456 1.967515 -177.960981 146.333957 -5.700449 167.625511 -43.454962 2.652728 -2.778414 80.900259 0.117563 -7.554520 21.454557 0.003108 0.000019 171.317793 3.171556 -168.765784 -42.955067 3.310118 -1.615750 99.966871 0.886738 -1.613875 21.454556 -0.003092 0.000000 12.880291 0.847380 0.381248 15.755633 1.634872 0.874543 15.437435 1.639988 0.864640 7.736153 -4.610183 -2.969033 -25.191081 6.447682 -6.459503 162.135968 -72.123605 16.981495 -6.882307 56.487530 30.515317 -46.757206 -20.545831 2.045940 2.276895 -0.522001 -31.156634 -169.579806 78.583329 12.116457 -29.279484 -53.794964 -30.758289 -37.653149 17.730323 -1.575381 11.263211 -12.242219 11.035689 
-170.328136 0.000000 137.193570 0.000000 6.958730 0.000000 -5.207924 86.407387 0.598378 91.619470 1.896366 -177.884995 147.740133 -5.904404 168.616033 -46.703729 2.791974 -2.565376 81.919007 -0.140244 -8.261278 21.454560 0.003108 0.000019 171.065817 3.210100 -169.287891 -41.900153 3.643404 -1.217396 98.818643 0.607166 -1.559084 21.454553 -0.003092 0.000000 12.722767 0.862681 0.380177 15.440698 1.666828 0.872294 15.122507 1.671930 0.862200 7.826446 -4.915956 -3.097967 -24.561157 6.737606 -6.702753 162.128896 -72.099808 16.989989 -7.524167 55.936976 31.211300 -47.358611 -20.431358 2.057033 2.382492 -0.300856 -24.718712 -169.274899 78.598246 12.426991 -28.610118 -54.159368 -31.449393 -36.923947 17.563673 -1.546564 10.452996 -12.552642 12.542457 
-171.500552 0.000000 137.183347 0.000000 7.205731 0.000000 -5.068984 86.853726 0.517813 91.640707 1.716619 -178.026721 149.594988 -6.022405 169.859500 -49.342396 2.675151 -2.601387 83.099979 -0.081420 -8.460457 21.454558 0.003108 0.000019 170.809496 3.449933 -169.707700 -40.920788 3.843948 -1.014458 97.585069 0.460210 -1.494282 21.454549 -0.003092 -0.000000 12.559116 0.838875 0.403025 15.113343 1.617836 0.912380 14.795168 1.623182 0.902581 7.916394 -5.201733 -3.190331 -23.719921 6.997761 -6.871720 162.163347 -72.154875 16.952177 -8.194831 55.513430 31.799729 -47.833196 -20.441419 2.072369 3.096890 -0.378982 -18.621290 -169.250900 78.606782 12.451403 -27.869437 -54.514156 -32.225892 -36.228321 17.419638 -1.520661 9.873623 -12.707698 13.673797 
-172.635796 0.000000 137.141952 0.000000 7.435599 0.000000 -4.936132 87.293579 0.410511 91.637531 1.472989 -178.327266 151.782867 -6.063794 171.291855 -51.299214 2.321662 -2.811359 84.146051 0.178915 -8.286653 21.454557 0.003107 0.000018 170.518555 3.808196 -170.080234 -39.983513 3.960758 -0.939729 96.327516 0.400651 -1.420498 21.454548 -0.003092 -0.000000 12.380458 0.783482 0.434930 14.755690 1.505018 0.966410 14.437534 1.510693 0.957291 8.024418 -5.396449 -3.241507 -22.711357 7.178176 -6.936057 162.239996 -72.296442 16.866941 -8.872340 55.226739 32.322691 -48.041542 -20.577410 2.088667 4.294425 -0.472875 -13.638622 -169.800045 78.584223 11.892093 -27.039335 -54.792513 -33.086979 -35.572946 17.223290 -1.492147 9.420990 -12.603574 14.524040 
-173.736965 0.000000 137.073580 0.000000 7.646613 0.000000 -4.823555 87.710858 0.312166 91.551089 1.237632 -178.704073 154.159339 -6.073326 172.855083 -52.539103 1.798020 -3.084318 84.789081 0.470080 -8.049445 21.454559 0.003105 0.000017 170.150435 4.166001 -170.447237 -39.039604 4.043394 -0.915202 95.098994 0.377416 -1.340974 21.454548 -0.003092 0.000000 12.174152 0.715000 0.459014 14.342477 1.367508 1.003268 14.024336 1.373408 0.994979 8.185196 -5.481595 -3.254072 -21.635471 7.239527 -6.889433 162.403262 -72.495357 16.690156 -9.551850 55.057352 32.819788 -47.858476 -20.793411 2.097953 5.803527 -0.404170 -10.164607 -171.028785 78.526377 10.640471 -26.141414 -54.949870 -34.019264 -34.955541 16.920087 -1.457904 8.979756 -12.177415 15.221072 
-174.808646 0.000000 136.978770 0.000000 7.837853 0.000000 -4.736873 88.081207 0.243935 91.350453 1.112847 -179.084721 156.607878 -6.184602 174.413880 -53.189534 1.285422 -3.267732 85.153347 0.667811 -7.871405 21.454563 0.003104 0.000017 169.661175 4.414306 -170.651935 -38.127478 4.041984 -0.969443 93.911569 0.411543 -1.262557 21.454551 -0.003092 0.000000 11.933365 0.671555 0.468058 13.860436 1.282142 1.013320 13.542305 1.288105 1.005547 8.498136 -5.628721 -3.243890 -20.725816 7.275871 -6.819881 162.708984 -72.667751 16.368892 -10.252921 54.958576 33.214020 -47.335474 -20.921033 2.088992 7.183698 -0.487167 -7.433804 -172.396009 78.558651 9.248044 -25.318173 -55.097635 -34.948875 -34.380405 16.577827 -1.422996 8.641088 -11.560342 15.795026 
-175.854310 0.000000 136.854764 0.000000 8.007676 0.000000 -4.674738 88.385436 0.217391 91.033684 1.171082 -179.419008 159.046352 -6.505433 175.818638 -53.369296 0.959737 -3.202958 85.413835 0.651166 -7.848676 21.454562 0.003106 0.000017 169.037597 4.487614 -170.582399 -37.293424 3.925516 -1.128089 92.769158 0.519891 -1.190478 21.454552 -0.003092 -0.000000 11.658735 0.681942 0.458596 13.311143 1.306550 0.992728 12.993020 1.312388 0.984807 9.034315 -5.970037 -3.223626 -20.162519 7.371309 -6.795204 163.181158 -72.730421 15.882614 -10.955548 54.872146 33.448776 -46.582699 -20.819256 2.057732 8.029040 -1.035054 -4.605654 -173.366457 78.786553 8.261235 -24.699982 -55.342841 -35.804305 -33.861234 16.277887 -1.392112 8.505354 -10.916389 16.228704 
-176.877224 0.000000 136.700825 0.000000 8.152913 0.000000 -4.608764 88.633293 0.209496 90.694030 1.335497 -179.734136 161.521188 -6.998794 176.972865 -52.987285 0.857735 -2.741390 85.560092 0.275372 -8.165331 21.454560 0.003109 0.000017 168.384298 4.471893 -170.510386 -36.528476 3.830979 -1.289588 91.683623 0.631476 -1.113590 21.454553 -0.003092 -0.000000 11.374977 0.718157 0.433606 12.743717 1.384140 0.943803 12.425588 1.389679 0.935414 9.685642 -6.290528 -3.169943 -19.779919 7.423300 -6.721083 163.715084 -72.659419 15.339113 -11.459786 54.724949 33.661500 -45.763018 -20.580268 2.016934 8.493796 -1.845021 -1.623981 -173.815896 79.070908 7.805923 -24.289234 -55.606556 -36.543369 -33.445260 16.033268 -1.367107 8.519624 -10.337643 16.392987 
